{"glyphs":{":":{"x_min":0,"x_max":287,"ha":287,"o":"m 184 502 l 184 416 l 106 416 l 106 502 z m 184 86 l 184 0 l 106 0 l 106 86 z"},"$":{"x_min":0,"x_max":556,"ha":556,"o":"m 254 647 q 228 647 206 636 q 183 626 166 608 q 150 590 140 566 q 131 543 131 516 q 131 488 142 468 q 152 447 170 432 q 187 417 209 406 q 231 396 254 389 z m 303 -68 l 254 -68 l 254 -15 q 213 -14 176 -2 q 139 10 110 32 q 82 55 65 88 q 48 122 49 167 l 49 176 l 118 176 q 115 145 126 121 q 136 97 156 80 q 175 64 201 55 q 227 46 254 45 l 254 320 q 218 334 184 348 q 149 363 122 384 q 95 406 78 437 q 62 468 62 515 q 62 553 78 588 q 94 623 121 649 q 148 675 182 691 q 217 707 254 707 l 254 755 l 303 755 l 303 707 q 341 707 376 694 q 410 682 437 659 q 464 636 481 604 q 498 572 501 532 l 433 532 q 433 560 422 581 q 411 602 393 617 q 375 632 352 640 q 328 648 303 649 l 303 374 q 342 362 380 348 q 417 333 447 310 q 477 288 495 256 q 513 223 513 174 q 513 129 496 94 q 478 59 449 34 q 420 10 382 -2 q 344 -15 303 -15 z m 303 45 q 330 47 355 56 q 380 66 400 82 q 420 99 432 122 q 444 146 444 176 q 444 208 431 230 q 418 251 398 266 q 378 280 352 290 q 327 300 303 309 z"},"?":{"x_min":0,"x_max":500,"ha":500,"o":"m 176 169 l 176 317 q 176 343 190 364 q 203 385 223 404 q 243 422 267 439 q 291 456 311 474 q 331 492 344 512 q 358 533 358 558 q 358 591 347 614 q 336 637 318 651 q 299 665 274 671 q 250 677 222 677 q 174 677 147 662 q 120 646 107 628 q 92 606 89 579 l 22 579 q 27 623 50 658 q 60 673 74 687 q 89 701 110 712 q 132 723 160 730 q 189 737 226 737 q 267 737 302 726 q 338 715 364 693 q 391 671 406 638 q 422 604 422 558 q 422 521 408 495 q 394 469 374 448 q 353 427 328 410 q 304 392 284 374 q 263 355 249 333 q 235 311 235 281 l 235 169 z m 245 86 l 245 0 l 166 0 l 166 86 z"},"<":{"x_min":0,"x_max":663,"ha":663,"o":"m 580 54 l 580 -10 l 90 225 l 90 278 l 580 501 l 580 437 l 168 251 z"},"'":{"x_min":0,"x_max":289,"ha":289,"o":"m 120 722 l 171 722 l 171 496 l 120 496 z"},"=":{"x_min":0,"x_max":663,"ha":663,"o":"m 580 318 l 90 318 l 90 378 l 580 378 z m 580 124 l 90 124 l 90 184 l 580 184 z"},"a":{"x_min":0,"x_max":501,"ha":501,"o":"m 106 140 q 106 94 134 67 q 161 40 206 40 q 232 40 260 48 q 288 56 311 72 q 334 87 349 110 q 364 134 364 165 l 364 244 l 279 244 q 254 244 224 240 q 194 237 168 226 q 141 214 124 194 q 106 173 106 140 z m 42 140 q 42 188 62 218 q 82 247 114 264 q 145 280 184 286 q 223 292 261 292 l 364 292 q 364 331 362 362 q 359 393 347 416 q 335 438 310 450 q 284 462 238 462 q 186 462 154 432 q 122 401 123 347 l 60 347 q 60 386 74 418 q 88 449 112 471 q 137 493 170 505 q 202 517 239 517 q 321 517 372 478 q 422 439 422 351 l 422 0 l 365 0 l 365 74 l 363 74 q 353 51 336 34 q 319 18 298 7 q 276 -4 252 -10 q 229 -15 206 -15 q 172 -15 142 -4 q 112 6 90 26 q 68 46 55 75 q 42 104 42 140 z"},"L":{"x_min":0,"x_max":559,"ha":559,"o":"m 111 0 l 111 722 l 174 722 l 174 60 l 530 60 l 530 0 z"},"3":{"x_min":0,"x_max":556,"ha":556,"o":"m 233 392 q 266 392 299 398 q 332 403 359 418 q 386 432 403 457 q 420 482 420 522 q 420 553 408 576 q 395 600 374 616 q 353 631 326 639 q 299 647 271 647 q 209 647 170 616 q 130 584 123 521 l 54 521 q 54 564 72 598 q 89 633 118 657 q 146 681 184 694 q 221 707 262 707 q 306 707 347 696 q 388 685 420 662 q 451 638 470 602 q 489 567 489 518 q 489 487 478 461 q 468 435 449 414 q 430 394 405 380 q 380 366 351 360 q 384 353 411 338 q 438 322 458 300 q 478 277 489 248 q 500 219 500 185 q 500 137 480 100 q 460 63 428 38 q 395 12 354 -2 q 312 -15 268 -15 q 222 -15 182 -2 q 142 11 112 36 q 81 61 63 98 q 45 135 44 183 l 113 183 q 113 151 126 126 q 139 100 160 82 q 182 64 210 54 q 237 45 267 45 q 301 45 331 54 q 361 64 384 82 q 406 101 418 128 q 431 156 431 193 q 431 235 413 262 q 395 288 366 303 q 338 318 302 324 q 267 329 233 329 z"},";":{"x_min":0,"x_max":285,"ha":285,"o":"m 206 81 l 135 -124 l 84 -124 l 126 81 z m 191 502 l 191 416 l 112 416 l 112 502 z"},"J":{"x_min":0,"x_max":500,"ha":500,"o":"m 87 178 q 92 121 128 83 q 163 45 221 45 q 256 45 280 62 q 303 79 318 106 q 332 132 338 164 q 345 195 345 225 l 345 722 l 409 722 l 409 235 q 409 183 398 138 q 386 92 361 58 q 336 24 296 4 q 256 -15 200 -15 q 158 -15 126 0 q 94 16 72 42 q 49 68 36 104 q 22 139 18 178 z"},"V":{"x_min":0,"x_max":606,"ha":606,"o":"m 310 65 l 312 65 l 536 722 l 600 722 l 344 0 l 271 0 l 13 722 l 82 722 z"},"\"":{"x_min":0,"x_max":282,"ha":282,"o":"m 63 722 l 114 722 l 114 496 l 63 496 z m 171 722 l 222 722 l 222 496 l 171 496 z"},"7":{"x_min":0,"x_max":557,"ha":557,"o":"m 491 631 q 430 485 377 359 q 354 305 332 250 q 309 196 288 148 q 268 99 252 60 q 236 21 227 0 l 153 0 l 424 631 l 59 632 l 59 692 l 491 692 z"},"S":{"x_min":0,"x_max":616,"ha":616,"o":"m 554 184 q 554 129 536 91 q 519 53 488 30 q 457 6 415 -4 q 373 -15 324 -15 q 274 -15 228 -4 q 182 7 147 31 q 112 55 91 94 q 70 132 69 188 l 137 188 q 138 147 153 120 q 168 92 193 74 q 218 57 251 50 q 284 42 321 42 q 357 42 387 49 q 417 56 439 72 q 461 89 473 116 q 485 144 485 184 q 485 233 456 261 q 426 289 382 308 q 337 327 285 342 q 233 358 188 382 q 144 406 114 444 q 85 481 85 544 q 85 593 102 629 q 120 665 150 689 q 181 713 222 725 q 262 737 307 737 q 349 737 390 728 q 431 720 464 700 q 496 681 516 648 q 536 614 536 565 l 473 565 q 472 599 458 622 q 443 644 420 658 q 397 671 368 676 q 339 681 310 681 q 279 681 250 674 q 222 667 200 651 q 179 635 166 610 q 154 586 154 551 q 154 500 184 470 q 213 440 258 420 q 302 400 354 384 q 406 368 450 344 q 495 321 524 284 q 554 246 554 184 z"},"}":{"x_min":0,"x_max":279,"ha":279,"o":"m 34 722 l 83 722 q 87 722 94 720 q 102 718 106 716 q 137 702 153 674 q 169 647 169 613 l 169 470 q 169 449 170 427 q 172 405 178 387 q 185 369 200 356 q 214 344 240 341 l 240 286 q 214 283 200 270 q 185 257 178 239 q 172 221 170 200 q 169 178 169 157 l 169 13 q 169 -5 163 -24 q 157 -44 146 -60 q 135 -75 119 -86 q 103 -96 83 -96 l 34 -96 l 34 -46 q 42 -46 50 -46 q 58 -47 66 -46 q 69 -46 74 -44 q 79 -42 81 -40 q 98 -29 102 -9 q 106 11 106 29 l 106 172 q 106 207 116 238 q 126 269 149 295 q 154 300 159 304 q 164 309 169 314 q 152 324 140 340 q 129 357 121 376 q 113 395 110 416 q 106 436 106 455 l 106 597 q 106 615 102 635 q 98 655 81 666 q 79 668 74 670 q 69 672 66 672 q 58 673 50 672 q 42 672 34 672 z"},"Z":{"x_min":0,"x_max":555,"ha":555,"o":"m 46 0 l 46 60 l 439 662 l 46 662 l 46 722 l 515 722 l 515 662 l 121 60 l 515 60 l 515 0 z"},"x":{"x_min":0,"x_max":497,"ha":497,"o":"m 402 502 l 464 502 l 288 259 l 480 0 l 402 0 l 244 218 l 90 0 l 23 0 q 76 61 120 126 q 165 192 213 257 l 32 502 l 110 502 l 254 300 z"},")":{"x_min":0,"x_max":282,"ha":282,"o":"m 48 -96 q 72 -61 91 -4 q 108 45 122 122 q 135 199 135 313 q 135 433 122 511 q 108 589 91 637 q 72 692 48 722 l 97 722 q 126 681 150 621 q 170 570 186 494 q 203 417 203 313 q 203 211 186 134 q 170 58 150 7 q 127 -54 98 -96 z"},"&":{"x_min":0,"x_max":717,"ha":717,"o":"m 270 44 q 303 44 330 58 q 357 72 379 94 q 401 116 419 142 q 437 169 453 194 l 281 381 q 256 364 230 343 q 204 322 182 297 q 161 272 148 242 q 134 213 134 179 q 134 152 146 128 q 157 103 176 84 q 195 66 220 55 q 244 44 270 44 z m 216 591 q 216 571 224 554 q 231 536 242 520 q 253 504 267 489 q 281 474 293 461 q 309 477 326 489 q 344 501 358 515 q 373 529 382 546 q 392 564 392 591 q 392 609 384 624 q 376 640 363 652 q 350 663 334 670 q 317 677 301 677 q 284 677 268 670 q 253 663 242 652 q 230 640 223 624 q 216 609 216 591 z m 240 422 q 225 440 208 459 q 192 478 178 499 q 165 520 156 542 q 148 565 148 591 q 148 622 161 649 q 174 676 196 696 q 218 715 246 726 q 273 737 303 737 q 333 737 361 726 q 389 715 411 696 q 433 676 446 650 q 460 623 460 591 q 460 560 448 535 q 436 510 418 490 q 399 470 376 452 q 353 435 331 419 l 486 248 l 579 408 l 651 408 l 526 204 l 715 0 l 624 0 l 493 150 q 469 113 448 82 q 427 52 402 30 q 376 9 343 -3 q 310 -15 262 -15 q 224 -15 188 0 q 153 16 126 42 q 99 68 82 104 q 66 139 66 178 q 66 220 82 256 q 97 291 122 321 q 147 351 178 376 q 209 401 240 422 z"},"_":{"x_min":0,"x_max":495,"ha":495,"o":"m 5 -124 l 5 -68 l 495 -68 l 495 -124 z"},"v":{"x_min":0,"x_max":497,"ha":497,"o":"m 84 502 l 254 83 l 418 502 l 482 502 l 287 0 l 221 0 l 20 502 z"},"O":{"x_min":0,"x_max":779,"ha":779,"o":"m 146 361 q 146 302 160 246 q 174 189 204 144 q 234 100 281 72 q 328 45 393 45 q 459 45 506 72 q 552 100 582 144 q 612 189 626 246 q 640 302 640 361 q 640 420 626 476 q 612 533 582 578 q 552 622 506 650 q 459 677 393 677 q 328 677 281 650 q 234 622 204 578 q 174 533 160 476 q 146 420 146 361 z m 709 361 q 709 285 690 216 q 672 148 633 96 q 594 45 534 15 q 475 -15 393 -15 q 312 -15 252 15 q 193 45 154 96 q 115 148 96 216 q 78 285 78 361 q 78 437 96 506 q 115 574 154 626 q 193 677 252 707 q 312 737 393 737 q 475 737 534 707 q 594 677 633 626 q 672 574 690 506 q 709 437 709 361 z"},"(":{"x_min":0,"x_max":283,"ha":283,"o":"m 187 -96 q 157 -54 134 7 q 114 58 98 134 q 82 211 82 313 q 82 417 98 494 q 115 570 135 621 q 158 681 188 722 l 237 722 q 212 692 194 637 q 177 589 164 511 q 151 433 151 313 q 151 199 164 122 q 177 45 194 -4 q 212 -61 237 -96 z"},"C":{"x_min":0,"x_max":667,"ha":667,"o":"m 139 361 q 139 303 152 246 q 164 190 192 145 q 219 100 264 72 q 309 45 375 45 q 404 45 432 52 q 460 60 483 75 q 506 90 522 114 q 537 137 542 169 l 611 169 q 607 122 586 87 q 564 52 532 30 q 499 7 458 -4 q 417 -15 375 -15 q 295 -15 238 16 q 180 47 143 100 q 106 152 88 220 q 71 287 71 361 q 71 434 88 502 q 106 570 144 622 q 181 674 238 706 q 295 737 375 737 q 417 737 458 726 q 499 715 532 692 q 564 670 586 635 q 607 600 611 553 l 542 553 q 537 585 522 608 q 506 632 483 647 q 460 662 432 670 q 404 677 375 677 q 309 677 264 650 q 219 622 192 577 q 164 532 152 476 q 139 419 139 361 z"},"W":{"x_min":0,"x_max":982,"ha":982,"o":"m 452 722 l 530 722 l 737 65 l 738 65 l 903 722 l 971 722 l 786 0 l 696 0 l 493 655 l 489 655 l 286 0 l 196 0 l 11 722 l 79 722 l 244 65 l 246 65 l 452 722 l 530 722 z"},"A":{"x_min":0,"x_max":662,"ha":662,"o":"m 486 255 l 333 662 l 177 255 z m 16 0 l 297 722 l 371 722 l 653 0 l 584 0 l 508 195 l 157 195 l 82 0 z"},"f":{"x_min":0,"x_max":333,"ha":333,"o":"m 125 0 l 125 447 l 26 447 l 26 502 l 125 502 q 125 540 124 581 q 123 622 132 656 q 141 690 166 712 q 191 734 244 734 q 258 734 274 730 q 289 727 300 722 l 300 676 q 184 705 184 583 l 184 502 l 296 502 l 296 447 l 184 447 l 184 0 z"},"Q":{"x_min":0,"x_max":777,"ha":777,"o":"m 613 0 l 575 39 q 539 13 494 -1 q 449 -15 394 -15 q 312 -15 252 15 q 193 45 154 96 q 115 148 96 216 q 78 285 78 361 q 78 437 96 506 q 115 574 154 626 q 193 677 252 707 q 312 737 394 737 q 475 737 534 707 q 594 677 633 626 q 672 574 690 506 q 709 437 709 361 q 709 278 687 205 q 665 132 618 79 l 696 0 z m 509 191 l 571 128 q 607 174 624 235 q 641 296 641 361 q 641 420 627 476 q 613 533 583 578 q 553 622 506 650 q 460 677 394 677 q 328 677 282 650 q 235 622 205 578 q 175 533 161 476 q 147 420 147 361 q 147 302 161 246 q 175 189 205 144 q 235 100 282 72 q 328 45 394 45 q 435 45 468 56 q 502 66 528 86 l 426 191 z"},"w":{"x_min":0,"x_max":827,"ha":827,"o":"m 237 79 l 239 79 l 388 502 l 458 502 l 603 83 l 605 83 l 747 502 l 811 502 l 628 0 l 572 0 l 421 433 l 419 433 l 265 0 l 206 0 l 25 502 l 90 502 z"},"-":{"x_min":0,"x_max":277,"ha":277,"o":"m 15 297 l 262 297 l 262 237 l 15 237 z"},"E":{"x_min":0,"x_max":616,"ha":616,"o":"m 113 0 l 113 722 l 533 722 l 533 662 l 177 662 l 177 403 l 520 403 l 520 343 l 177 343 l 177 60 l 548 60 l 548 0 z"},"s":{"x_min":0,"x_max":487,"ha":487,"o":"m 262 36 q 285 36 306 42 q 328 48 344 60 q 361 72 370 91 q 380 110 380 136 q 380 172 357 191 q 334 210 300 221 q 265 232 224 240 q 184 249 150 264 q 115 278 92 304 q 69 330 69 377 q 69 414 85 441 q 101 468 127 484 q 153 501 184 509 q 216 517 248 517 q 289 517 324 506 q 358 496 382 475 q 407 454 421 422 q 435 390 435 347 l 377 347 q 377 377 367 400 q 357 422 339 436 q 321 451 297 458 q 273 465 245 465 q 225 465 205 461 q 185 457 169 447 q 153 437 143 421 q 133 405 133 381 q 133 350 156 334 q 179 317 214 306 q 248 296 288 286 q 329 277 364 262 q 398 246 421 218 q 444 191 444 145 q 444 100 428 69 q 412 38 384 20 q 357 1 322 -7 q 286 -15 247 -15 q 205 -15 169 -4 q 133 6 106 28 q 79 49 64 82 q 48 115 48 160 l 112 160 q 112 125 124 101 q 136 77 156 62 q 176 48 204 42 q 231 36 262 36 z"},">":{"x_min":0,"x_max":663,"ha":663,"o":"m 90 448 l 90 512 l 580 277 l 580 224 l 90 1 l 90 65 l 503 251 z"},"l":{"x_min":0,"x_max":230,"ha":230,"o":"m 145 0 l 87 0 l 87 722 l 145 722 z"},"8":{"x_min":0,"x_max":556,"ha":556,"o":"m 199 361 q 169 364 144 378 q 118 393 100 415 q 81 437 70 464 q 60 492 60 521 q 60 567 79 602 q 98 637 128 660 q 159 683 199 695 q 239 707 281 707 q 323 707 362 695 q 402 683 432 660 q 463 637 482 602 q 501 567 501 521 q 501 459 462 417 q 423 375 365 361 l 365 360 q 429 343 470 300 q 511 257 511 188 q 511 138 492 100 q 473 63 442 37 q 410 11 368 -2 q 327 -15 281 -15 q 235 -15 193 -2 q 151 11 120 37 q 88 63 70 100 q 51 138 51 188 q 51 221 62 250 q 73 278 92 300 q 112 322 140 337 q 167 352 199 359 z m 124 521 q 124 486 137 462 q 150 437 172 422 q 193 406 222 398 q 250 391 281 391 q 312 391 340 398 q 368 406 390 422 q 412 437 425 462 q 438 486 438 521 q 438 554 424 579 q 411 604 390 620 q 368 636 340 644 q 311 652 281 652 q 251 652 222 644 q 194 636 172 620 q 151 604 138 579 q 124 554 124 521 z m 119 188 q 119 152 132 126 q 145 99 167 81 q 189 63 218 54 q 248 45 281 45 q 314 45 344 54 q 373 63 395 81 q 417 99 430 126 q 443 152 443 188 q 443 224 430 250 q 417 277 395 295 q 373 313 344 322 q 314 331 281 331 q 248 331 218 322 q 189 313 167 295 q 145 277 132 250 q 119 224 119 188 z"},"\\":{"x_min":0,"x_max":270,"ha":270,"o":"m -43 722 l 21 722 l 317 0 l 253 0 z"},"e":{"x_min":0,"x_max":557,"ha":557,"o":"m 438 292 q 435 327 424 358 q 412 389 392 412 q 372 435 344 448 q 315 462 278 462 q 243 462 216 448 q 188 433 168 410 q 149 386 138 356 q 126 325 123 292 z m 121 237 q 122 197 133 162 q 144 126 166 99 q 187 72 218 56 q 250 40 292 40 q 317 40 340 50 q 364 59 382 76 q 401 92 414 114 q 428 136 434 160 l 496 160 q 476 75 417 30 q 358 -15 273 -15 q 221 -15 180 8 q 140 31 112 68 q 85 106 71 154 q 57 201 57 249 q 57 298 72 346 q 86 395 114 432 q 142 470 183 494 q 224 517 277 517 q 336 517 378 494 q 421 472 448 434 q 476 395 489 346 q 502 296 502 242 l 502 237 z"},"b":{"x_min":0,"x_max":558,"ha":558,"o":"m 296 462 q 254 462 224 445 q 194 428 175 400 q 156 372 147 336 q 138 299 138 261 q 138 218 146 178 q 154 138 173 108 q 192 77 224 58 q 257 40 305 40 q 347 40 374 61 q 402 82 418 114 q 434 147 440 185 q 446 223 446 258 q 446 294 438 330 q 431 367 413 396 q 395 426 366 444 q 338 462 296 462 z m 138 0 l 79 0 l 79 722 l 138 722 l 138 428 l 140 426 q 166 471 212 494 q 258 517 308 517 q 363 517 402 494 q 440 471 464 434 q 488 396 499 349 q 510 302 510 253 q 510 206 499 158 q 488 110 464 72 q 441 33 403 9 q 365 -15 311 -15 q 257 -15 214 9 q 170 33 140 78 l 138 74 z"},"%":{"x_min":0,"x_max":1005,"ha":1005,"o":"m 289 662 q 261 662 242 648 q 222 635 210 614 q 198 593 192 568 q 187 542 187 518 q 187 494 192 468 q 198 443 210 422 q 222 401 242 388 q 261 374 289 374 q 317 374 336 388 q 356 401 368 422 q 380 443 386 468 q 391 494 391 518 q 391 542 386 568 q 380 593 368 614 q 356 635 336 648 q 317 662 289 662 z m 714 707 l 332 0 l 275 0 l 657 707 z m 289 707 q 327 707 356 691 q 386 675 406 648 q 425 622 435 588 q 445 554 445 518 q 445 482 435 448 q 425 414 406 388 q 386 361 356 345 q 327 329 289 329 q 251 329 222 345 q 192 361 172 388 q 153 414 143 448 q 133 482 133 518 q 133 554 143 588 q 153 622 172 648 q 192 675 222 691 q 251 707 289 707 z m 726 363 q 764 363 794 347 q 823 331 842 304 q 862 278 872 244 q 882 210 882 174 q 882 138 872 104 q 862 70 842 44 q 823 17 794 1 q 764 -15 726 -15 q 688 -15 658 1 q 629 17 610 44 q 590 70 580 104 q 570 138 570 174 q 570 210 580 244 q 590 278 610 304 q 629 331 658 347 q 688 363 726 363 z m 726 318 q 698 318 678 304 q 659 291 647 270 q 635 249 630 224 q 624 198 624 174 q 624 150 630 124 q 635 99 647 78 q 659 57 678 44 q 698 30 726 30 q 754 30 774 44 q 793 57 805 78 q 817 99 822 124 q 828 150 828 174 q 828 198 822 224 q 817 249 805 270 q 793 291 774 304 q 754 318 726 318 z"},"m":{"x_min":0,"x_max":890,"ha":890,"o":"m 150 428 l 152 426 q 174 472 214 494 q 255 517 306 517 q 361 517 404 489 q 448 461 466 407 q 485 461 532 489 q 579 517 635 517 q 682 517 715 502 q 748 486 769 458 q 790 431 800 394 q 809 357 809 314 l 809 0 l 750 0 l 750 324 q 750 387 717 424 q 684 462 621 462 q 584 462 558 448 q 531 433 514 409 q 496 385 488 354 q 480 322 480 289 l 480 0 l 421 0 l 421 324 q 421 387 388 424 q 355 462 291 462 q 255 462 228 448 q 201 433 184 409 q 167 385 158 354 q 150 322 150 289 l 150 0 l 91 0 l 91 502 l 150 502 z"},"#":{"x_min":0,"x_max":574,"ha":574,"o":"m 427 201 l 427 0 l 376 0 l 376 201 l 202 201 l 202 0 l 153 0 l 153 201 l 59 201 l 59 255 l 153 255 l 153 467 l 59 467 l 59 521 l 153 521 l 153 722 l 202 722 l 202 521 l 376 521 l 376 722 l 427 722 l 427 521 l 521 521 l 521 467 l 427 467 l 427 255 l 521 255 l 521 201 z m 376 467 l 202 467 l 202 255 l 376 255 z"},",":{"x_min":0,"x_max":284,"ha":284,"o":"m 185 81 l 115 -124 l 64 -124 l 106 81 z"},"n":{"x_min":0,"x_max":560,"ha":560,"o":"m 289 462 q 254 462 228 447 q 201 432 184 408 q 166 384 157 353 q 148 322 148 289 l 148 0 l 89 0 l 89 502 l 148 502 l 148 428 l 150 426 q 174 474 215 496 q 256 517 304 517 q 348 517 380 501 q 413 485 434 458 q 456 430 466 393 q 477 356 477 314 l 477 0 l 418 0 l 418 324 q 418 385 384 424 q 350 462 289 462 z"},"h":{"x_min":0,"x_max":560,"ha":560,"o":"m 148 426 l 150 426 q 173 470 214 494 q 255 517 304 517 q 350 517 382 502 q 415 486 436 458 q 457 431 467 394 q 477 357 477 314 l 477 0 l 418 0 l 418 324 q 418 387 385 424 q 352 462 289 462 q 253 462 226 448 q 200 433 182 409 q 165 385 156 354 q 148 322 148 289 l 148 0 l 89 0 l 89 722 l 148 722 z"},"z":{"x_min":0,"x_max":445,"ha":445,"o":"m 46 55 l 333 447 l 46 447 l 46 502 l 403 502 l 403 447 l 118 55 l 403 55 l 403 0 l 46 0 z"},"B":{"x_min":0,"x_max":621,"ha":621,"o":"m 175 404 l 292 404 q 327 404 358 409 q 389 414 412 428 q 436 443 450 470 q 464 496 464 538 q 464 572 452 596 q 441 619 420 634 q 400 649 373 656 q 346 662 316 662 l 175 662 z m 111 0 l 111 722 l 316 722 q 360 722 400 712 q 439 702 468 680 q 498 658 516 623 q 533 588 533 538 q 533 513 525 488 q 517 462 501 440 q 485 418 462 402 q 440 386 412 380 l 412 378 q 458 374 492 358 q 526 343 548 318 q 570 294 580 262 q 591 230 591 193 q 591 141 573 104 q 555 68 524 44 q 493 21 452 10 q 411 0 365 0 z m 175 344 l 175 60 l 326 60 q 359 60 394 65 q 429 70 458 84 q 486 98 504 124 q 523 151 523 193 q 523 247 502 277 q 481 307 448 322 q 415 337 374 340 q 333 344 292 344 z"},"K":{"x_min":0,"x_max":613,"ha":613,"o":"m 118 0 l 118 722 l 180 722 l 181 384 l 498 722 l 578 722 l 260 376 l 608 0 l 520 0 l 181 357 l 180 0 z"},"R":{"x_min":0,"x_max":652,"ha":652,"o":"m 578 518 q 578 443 542 396 q 505 350 436 330 l 615 0 l 545 0 l 375 313 l 175 313 l 175 0 l 111 0 l 111 722 l 299 722 q 354 722 404 716 q 455 709 494 688 q 532 666 555 626 q 578 585 578 518 z m 509 518 q 509 564 496 592 q 483 620 459 636 q 435 651 402 656 q 369 662 330 662 l 175 662 l 175 374 l 330 374 q 366 374 398 380 q 430 387 455 404 q 480 420 494 448 q 509 476 509 518 z"},"T":{"x_min":0,"x_max":552,"ha":552,"o":"m 249 662 l 20 662 l 20 722 l 538 722 l 538 662 l 313 662 l 312 0 l 250 0 z"},"P":{"x_min":0,"x_max":614,"ha":614,"o":"m 175 374 l 330 374 q 366 374 398 380 q 430 387 455 404 q 480 420 494 448 q 509 476 509 518 q 509 563 496 592 q 482 620 458 636 q 434 651 402 656 q 369 662 330 662 l 175 662 z m 111 0 l 111 722 l 298 722 q 352 722 402 716 q 453 709 492 688 q 531 666 554 626 q 578 585 578 518 q 578 449 548 408 q 519 367 474 346 q 428 325 372 319 q 316 313 263 313 q 241 313 219 314 q 197 314 175 314 l 175 0 z"},"|":{"x_min":0,"x_max":230,"ha":230,"o":"m 87 750 l 145 750 l 145 -250 l 87 -250 z"},"t":{"x_min":0,"x_max":323,"ha":323,"o":"m 184 0 l 125 0 l 125 447 l 27 447 l 27 502 l 125 502 l 125 635 l 184 635 l 184 502 l 296 502 l 296 447 l 184 447 z"},"M":{"x_min":0,"x_max":947,"ha":947,"o":"m 111 0 l 111 722 l 213 722 l 478 93 l 750 722 l 847 722 l 847 0 l 783 0 l 783 667 l 781 667 l 511 0 l 447 0 l 176 664 l 174 664 l 174 0 z"},"g":{"x_min":0,"x_max":557,"ha":557,"o":"m 426 262 q 426 298 416 334 q 406 369 386 398 q 367 426 337 444 q 307 462 268 462 q 228 462 200 444 q 171 425 152 396 q 134 367 125 331 q 116 295 116 260 q 116 225 125 188 q 134 152 153 123 q 172 94 201 76 q 230 57 270 57 q 312 57 342 75 q 372 93 390 122 q 409 151 418 188 q 426 224 426 262 z m 426 502 l 485 502 l 485 0 q 485 -32 474 -66 q 462 -100 436 -128 q 411 -156 370 -174 q 329 -192 269 -192 q 237 -192 203 -186 q 169 -180 140 -164 q 111 -149 92 -123 q 74 -97 74 -57 l 138 -57 q 141 -81 156 -97 q 170 -113 190 -122 q 211 -132 234 -136 q 257 -140 277 -140 q 306 -140 333 -130 q 360 -119 380 -100 q 401 -81 414 -55 q 426 -29 426 2 l 426 96 l 424 96 q 402 51 357 26 q 312 2 264 2 q 208 2 168 22 q 128 42 102 76 q 77 111 64 157 q 52 203 52 255 q 52 306 64 354 q 75 401 100 437 q 126 473 166 495 q 206 517 262 517 q 316 517 359 490 q 402 462 424 426 l 426 428 z"},"j":{"x_min":0,"x_max":224,"ha":224,"o":"m 0 -138 l 32 -138 q 50 -138 60 -132 q 70 -126 75 -116 q 80 -106 81 -93 q 82 -80 82 -66 q 82 -31 82 12 q 82 56 82 102 q 81 149 81 197 q 81 245 81 289 l 81 502 l 140 502 l 140 -66 q 140 -93 136 -116 q 132 -139 121 -156 q 110 -173 89 -182 q 68 -192 35 -192 l 32 -192 l 0 -192 z m 145 647 l 76 647 l 76 722 l 145 722 z"},"i":{"x_min":0,"x_max":229,"ha":229,"o":"m 150 647 l 81 647 l 81 722 l 150 722 z m 145 502 l 145 0 l 86 0 l 86 502 z"},"y":{"x_min":0,"x_max":497,"ha":497,"o":"m 85 502 l 251 82 l 415 502 l 479 502 l 208 -192 l 143 -192 l 217 0 l 13 502 z"},"@":{"x_min":0,"x_max":797,"ha":797,"o":"m 554 566 l 618 566 q 613 551 603 522 q 593 493 581 458 q 569 422 556 383 q 544 344 534 310 q 523 276 516 250 q 509 225 509 215 q 509 189 537 189 q 573 189 602 215 q 630 241 650 278 q 670 315 680 356 q 691 397 691 427 q 691 486 669 534 q 647 582 609 616 q 571 650 521 668 q 471 687 416 687 q 349 687 292 660 q 236 634 196 589 q 155 544 132 484 q 109 424 109 357 q 109 290 132 232 q 156 173 198 130 q 239 86 296 60 q 352 35 418 35 q 494 35 563 70 q 632 106 676 170 l 733 170 q 710 126 676 92 q 642 58 600 34 q 559 10 512 -2 q 466 -15 418 -15 q 341 -15 274 15 q 207 45 157 96 q 107 148 78 217 q 50 286 50 364 q 50 440 79 508 q 108 576 158 627 q 207 678 273 708 q 339 737 414 737 q 480 737 540 714 q 601 692 648 651 q 694 610 722 552 q 750 494 750 424 q 750 379 733 328 q 716 277 686 234 q 656 191 614 162 q 572 134 523 134 q 497 134 473 146 q 449 159 440 186 q 417 163 386 150 q 356 136 323 136 q 292 136 267 148 q 242 160 225 180 q 208 200 198 228 q 189 255 189 285 q 189 335 206 388 q 224 441 256 485 q 287 529 332 557 q 376 585 430 585 q 464 585 494 568 q 524 552 539 520 z m 263 290 q 263 273 268 256 q 272 239 282 226 q 291 212 305 204 q 319 196 338 196 q 361 196 382 210 q 404 223 422 245 q 439 267 454 295 q 468 323 478 352 q 488 381 494 408 q 499 434 499 454 q 499 483 480 504 q 461 525 432 525 q 393 525 362 501 q 330 477 308 442 q 286 407 274 366 q 263 324 263 290 z"},".":{"x_min":0,"x_max":287,"ha":287,"o":"m 106 0 l 106 86 l 184 86 l 184 0 z"},"p":{"x_min":0,"x_max":557,"ha":557,"o":"m 296 462 q 254 462 224 443 q 193 424 172 394 q 152 364 142 326 q 133 288 133 251 q 133 213 142 176 q 152 138 172 108 q 193 78 224 59 q 254 40 296 40 q 336 40 365 60 q 394 80 412 112 q 430 143 438 180 q 447 218 447 253 q 447 288 438 325 q 430 362 412 392 q 393 423 364 442 q 336 462 296 462 z m 137 78 l 137 -192 l 78 -192 l 78 502 l 137 502 l 137 426 l 139 426 q 189 517 296 517 q 349 517 389 494 q 429 472 456 435 q 482 398 496 351 q 509 304 509 255 q 509 207 496 159 q 482 111 456 72 q 429 33 389 9 q 349 -15 296 -15 q 240 -15 204 8 q 169 32 139 78 z"},"X":{"x_min":0,"x_max":606,"ha":606,"o":"m 87 0 l 15 0 l 267 372 l 27 722 l 111 722 l 311 418 l 518 722 l 590 722 l 345 372 l 598 0 l 516 0 l 302 323 z"},"*":{"x_min":0,"x_max":561,"ha":561,"o":"m 281 576 l 347 722 l 397 694 l 303 562 l 451 579 l 451 521 l 304 537 l 396 403 l 345 376 l 281 524 l 215 374 l 166 403 l 259 536 l 110 521 l 110 579 l 260 562 l 163 693 l 215 722 z"},"Y":{"x_min":0,"x_max":606,"ha":606,"o":"m 275 312 l 15 722 l 96 722 l 313 373 l 529 722 l 598 722 l 339 314 l 339 0 l 275 0 z"},"c":{"x_min":0,"x_max":500,"ha":500,"o":"m 397 347 q 395 377 384 398 q 372 420 354 434 q 335 449 312 456 q 288 462 263 462 q 224 462 196 442 q 169 421 151 390 q 133 359 125 322 q 117 285 117 252 q 117 219 125 182 q 133 144 150 112 q 168 81 196 60 q 224 40 263 40 q 288 40 311 49 q 334 58 352 74 q 371 90 383 112 q 395 134 397 160 l 461 160 q 451 80 399 32 q 347 -15 269 -15 q 215 -15 174 8 q 134 31 107 68 q 80 106 66 154 q 53 202 53 251 q 53 299 68 346 q 82 394 110 432 q 137 470 177 494 q 217 517 269 517 q 306 517 340 506 q 374 494 400 472 q 426 450 442 418 q 459 387 461 347 z"},"!":{"x_min":0,"x_max":404,"ha":404,"o":"m 177 171 l 164 722 l 245 722 l 232 171 z m 244 86 l 244 0 l 165 0 l 165 86 z"},"/":{"x_min":0,"x_max":272,"ha":272,"o":"m 231 722 l 295 722 l 39 -96 l -23 -96 z"},"[":{"x_min":0,"x_max":284,"ha":284,"o":"m 92 -96 l 92 722 l 226 722 l 226 672 l 155 672 l 155 -46 l 226 -46 l 226 -96 z"},"6":{"x_min":0,"x_max":556,"ha":556,"o":"m 299 394 q 259 394 228 380 q 197 365 176 340 q 155 316 144 282 q 133 249 133 211 q 133 179 144 149 q 155 119 176 96 q 196 73 224 59 q 252 45 286 45 q 323 45 352 58 q 381 72 401 95 q 421 118 431 149 q 441 180 441 216 q 441 249 433 281 q 425 313 408 338 q 391 363 364 378 q 337 394 299 394 z m 290 707 q 331 707 368 694 q 404 680 431 656 q 458 633 474 600 q 490 568 490 530 l 426 530 q 426 554 418 575 q 409 596 392 612 q 375 628 350 638 q 326 647 293 647 q 255 647 228 632 q 200 618 180 594 q 161 571 150 540 q 138 508 132 474 q 125 440 123 405 q 121 370 121 340 l 121 336 q 144 392 194 420 q 243 449 302 449 q 352 449 390 431 q 429 413 456 382 q 482 352 496 310 q 509 268 509 220 q 509 172 494 130 q 480 87 453 54 q 426 22 386 4 q 347 -15 296 -15 q 225 -15 178 14 q 131 42 103 88 q 75 134 64 192 q 53 251 53 311 q 53 375 62 445 q 70 515 95 573 q 120 631 166 669 q 213 707 290 707 z"},"r":{"x_min":0,"x_max":328,"ha":328,"o":"m 315 448 q 292 462 265 462 q 235 462 212 447 q 190 432 175 408 q 160 385 153 357 q 146 329 146 302 l 146 0 l 87 0 l 87 502 l 146 502 l 146 428 l 148 428 q 153 446 164 462 q 174 478 188 490 q 202 502 219 510 q 236 517 255 517 q 271 517 288 514 q 304 510 318 501 l 318 448 z"},"2":{"x_min":0,"x_max":558,"ha":558,"o":"m 58 0 l 58 79 q 80 101 114 134 q 149 167 188 206 q 226 245 265 288 q 304 331 336 373 q 367 415 386 454 q 406 493 406 524 q 406 553 395 576 q 384 599 366 614 q 347 630 322 638 q 297 647 270 647 q 240 647 215 636 q 190 626 172 608 q 153 589 143 564 q 133 539 133 509 l 64 509 q 64 554 80 591 q 96 628 124 654 q 152 679 190 693 q 228 707 272 707 q 315 707 352 696 q 389 684 416 661 q 444 638 460 604 q 475 569 475 524 q 475 487 457 446 q 439 404 410 361 q 380 318 342 275 q 305 232 267 192 q 229 153 194 119 q 159 85 134 60 l 484 60 l 484 0 z"},"{":{"x_min":0,"x_max":279,"ha":279,"o":"m 248 -96 l 199 -96 q 179 -96 163 -86 q 147 -75 136 -60 q 125 -44 119 -24 q 113 -5 113 13 l 113 156 q 113 177 112 198 q 110 220 104 238 q 97 256 82 268 q 68 281 43 284 l 43 339 q 68 342 82 355 q 97 368 104 386 q 110 404 112 426 q 113 448 113 469 l 113 613 q 113 647 130 674 q 146 702 177 716 q 181 718 188 720 q 195 722 199 722 l 248 722 l 248 672 q 240 672 232 672 q 224 673 216 672 q 214 672 209 670 q 204 668 202 666 q 185 655 181 635 q 177 615 177 597 l 177 454 q 177 419 166 388 q 156 357 133 331 q 128 326 123 322 q 118 317 113 312 q 129 301 142 285 q 154 269 162 250 q 169 231 173 210 q 177 190 177 171 l 177 29 q 177 11 181 -9 q 185 -29 202 -40 q 204 -42 209 -44 q 214 -46 216 -46 q 224 -47 232 -46 q 240 -46 248 -46 z"},"9":{"x_min":0,"x_max":556,"ha":556,"o":"m 264 298 q 304 298 335 312 q 366 327 387 352 q 408 376 419 410 q 430 443 430 481 q 430 513 418 543 q 407 573 387 596 q 367 619 339 633 q 311 647 277 647 q 239 647 210 634 q 182 620 162 597 q 142 574 132 543 q 122 512 122 476 q 122 443 130 411 q 138 379 155 354 q 172 329 199 314 q 226 298 264 298 z m 273 -15 q 232 -15 196 -2 q 159 12 132 36 q 104 59 88 92 q 72 124 72 162 l 137 162 q 137 138 146 117 q 154 96 171 80 q 188 64 212 54 q 237 45 270 45 q 308 45 336 60 q 363 74 382 98 q 402 121 414 152 q 425 184 432 218 q 438 252 440 286 q 442 321 442 352 l 442 356 q 419 300 370 272 q 320 243 261 243 q 211 243 172 261 q 133 279 107 310 q 81 340 68 382 q 54 424 54 472 q 54 520 68 562 q 83 605 110 638 q 137 670 176 688 q 216 707 267 707 q 338 707 385 678 q 432 650 460 604 q 487 558 498 500 q 510 441 510 381 q 510 338 506 292 q 503 246 494 202 q 485 158 468 118 q 451 79 425 50 q 399 20 362 2 q 324 -15 273 -15 z"}," ":{"x_min":0,"x_max":289,"ha":289,"o":""},"I":{"x_min":0,"x_max":288,"ha":288,"o":"m 114 0 l 114 725 l 178 725 l 178 0 z"},"H":{"x_min":0,"x_max":727,"ha":727,"o":"m 110 0 l 110 722 l 174 722 l 174 405 l 560 405 l 560 722 l 624 722 l 624 0 l 560 0 l 560 345 l 174 345 l 174 0 z"},"4":{"x_min":0,"x_max":554,"ha":554,"o":"m 347 161 l 29 161 l 29 224 l 327 692 l 411 692 l 411 215 l 520 215 l 520 161 l 411 161 l 411 0 l 347 0 z m 347 627 l 345 627 l 82 215 l 347 215 z"},"~":{"x_min":0,"x_max":663,"ha":663,"o":"m 228 319 q 255 319 284 308 q 314 297 343 283 q 372 269 398 258 q 424 247 444 247 q 460 247 475 256 q 490 264 502 277 q 515 290 524 305 q 534 320 541 334 l 580 300 q 569 280 556 260 q 543 241 526 226 q 509 210 488 200 q 468 191 443 191 q 429 191 412 196 q 394 200 376 206 q 358 213 341 220 q 324 228 311 233 q 291 241 270 252 q 250 264 228 264 q 208 264 192 254 q 177 245 164 231 q 152 217 142 200 q 131 184 122 169 l 90 216 q 101 232 114 250 q 127 268 144 284 q 161 299 182 309 q 202 319 228 319 z"},"D":{"x_min":0,"x_max":725,"ha":725,"o":"m 309 60 q 452 60 521 140 q 590 219 590 361 q 590 441 567 498 q 544 555 502 592 q 460 628 400 645 q 340 662 266 662 l 166 662 l 166 60 z m 294 722 q 467 722 562 632 q 658 541 658 361 q 658 181 562 90 q 467 0 294 0 l 102 0 l 102 722 z"},"^":{"x_min":0,"x_max":662,"ha":662,"o":"m 84 239 l 309 692 l 360 692 l 587 239 l 531 239 l 334 631 l 141 239 z"},"0":{"x_min":0,"x_max":556,"ha":556,"o":"m 281 647 q 227 647 196 615 q 165 583 149 536 q 133 490 128 438 q 124 386 124 346 q 124 306 128 254 q 133 202 149 156 q 165 109 196 77 q 227 45 281 45 q 335 45 366 77 q 397 109 413 156 q 429 202 434 254 q 438 306 438 346 q 438 386 434 438 q 429 490 413 536 q 397 583 366 615 q 335 647 281 647 z m 281 707 q 353 707 398 672 q 442 638 466 584 q 491 531 499 468 q 507 404 507 346 q 507 288 499 224 q 491 161 466 108 q 442 54 398 20 q 353 -15 281 -15 q 209 -15 164 20 q 120 54 96 108 q 72 161 64 224 q 56 288 56 346 q 56 404 64 468 q 72 531 96 584 q 120 638 164 672 q 209 707 281 707 z"},"F":{"x_min":0,"x_max":560,"ha":560,"o":"m 105 0 l 105 722 l 505 722 l 505 662 l 169 662 l 169 407 l 493 407 l 493 347 l 169 347 l 169 0 z"},"`":{"x_min":0,"x_max":281,"ha":281,"o":"m 101 707 l 191 564 l 147 564 l 23 707 z"},"k":{"x_min":0,"x_max":487,"ha":487,"o":"m 154 277 l 388 502 l 468 502 l 216 265 l 487 0 l 409 0 l 154 252 l 154 0 l 95 0 l 95 722 l 154 722 z"},"u":{"x_min":0,"x_max":560,"ha":560,"o":"m 277 40 q 312 40 338 55 q 365 70 382 94 q 400 119 409 150 q 418 181 418 213 l 418 502 l 477 502 l 477 0 l 418 0 l 418 74 l 416 76 q 393 34 352 10 q 310 -15 262 -15 q 218 -15 186 1 q 153 17 132 45 q 110 73 100 110 q 89 146 89 188 l 89 502 l 148 502 l 148 178 q 148 117 182 78 q 216 40 277 40 z"},"]":{"x_min":0,"x_max":283,"ha":283,"o":"m 195 722 l 195 -96 l 61 -96 l 61 -46 l 131 -46 l 131 672 l 61 672 l 61 722 z"},"U":{"x_min":0,"x_max":727,"ha":727,"o":"m 172 722 l 172 255 q 172 209 185 170 q 198 132 223 104 q 248 76 284 60 q 320 45 367 45 q 413 45 450 60 q 486 76 511 104 q 536 132 549 170 q 562 209 562 255 l 562 722 l 626 722 l 626 254 q 626 193 608 144 q 591 94 558 58 q 524 23 476 4 q 428 -15 367 -15 q 306 -15 258 4 q 210 23 176 58 q 143 94 126 144 q 108 193 108 254 l 108 722 z"},"o":{"x_min":0,"x_max":556,"ha":556,"o":"m 281 517 q 335 517 378 495 q 421 473 450 436 q 479 399 494 351 q 510 303 510 251 q 510 199 494 151 q 479 103 450 66 q 421 29 378 7 q 335 -15 281 -15 q 226 -15 184 7 q 141 29 112 66 q 82 103 67 151 q 52 199 52 251 q 52 303 67 351 q 82 399 112 436 q 141 473 184 495 q 226 517 281 517 z m 447 251 q 447 288 436 326 q 425 363 404 394 q 383 424 352 443 q 321 462 281 462 q 240 462 209 443 q 178 424 157 394 q 136 363 126 326 q 115 288 115 251 q 115 214 126 176 q 136 139 157 108 q 178 78 209 59 q 240 40 281 40 q 321 40 352 59 q 383 78 404 108 q 425 139 436 176 q 447 214 447 251 z"},"N":{"x_min":0,"x_max":726,"ha":726,"o":"m 103 722 l 176 722 l 566 87 l 568 87 l 568 722 l 631 722 l 631 0 l 551 0 l 169 624 l 167 624 l 167 0 l 103 0 z"},"+":{"x_min":0,"x_max":670,"ha":670,"o":"m 306 502 l 364 502 l 364 281 l 580 281 l 580 221 l 364 221 l 364 0 l 306 0 l 306 221 l 90 221 l 90 281 l 306 281 z"},"G":{"x_min":0,"x_max":724,"ha":724,"o":"m 625 400 l 625 0 q 575 -8 526 -14 q 476 -19 425 -19 q 330 -19 264 6 q 197 30 155 78 q 113 126 94 197 q 74 268 74 361 q 74 429 92 496 q 110 564 148 618 q 185 671 242 704 q 299 737 376 737 q 419 737 462 724 q 505 712 540 688 q 575 663 598 627 q 621 591 625 544 l 552 544 q 547 577 531 602 q 515 627 491 644 q 467 660 437 668 q 407 677 376 677 q 313 677 268 648 q 224 618 196 572 q 168 527 155 471 q 142 415 142 361 q 142 287 157 228 q 172 168 206 126 q 240 85 294 63 q 349 41 427 41 q 462 41 496 44 q 530 48 564 54 l 564 340 l 359 340 l 359 400 z"},"q":{"x_min":0,"x_max":557,"ha":557,"o":"m 259 40 q 300 40 332 58 q 363 76 384 106 q 406 136 417 174 q 428 212 428 252 q 428 292 417 330 q 406 367 384 396 q 363 426 332 444 q 300 462 259 462 q 223 462 196 444 q 170 426 152 397 q 134 368 125 330 q 116 292 116 253 q 115 213 124 175 q 134 137 152 107 q 171 77 198 58 q 225 40 259 40 z m 485 502 l 485 -191 l 426 -191 l 426 78 l 424 78 q 361 -15 259 -15 q 209 -15 170 8 q 132 31 106 69 q 80 107 66 156 q 53 204 53 255 q 53 304 66 351 q 79 398 105 435 q 131 472 170 494 q 208 517 259 517 q 310 517 354 494 q 398 470 424 428 l 426 428 l 426 502 z"},"d":{"x_min":0,"x_max":557,"ha":557,"o":"m 424 263 q 424 301 415 337 q 406 373 387 400 q 368 428 338 445 q 307 462 265 462 q 223 462 194 444 q 166 426 149 398 q 132 369 124 332 q 117 296 117 260 q 117 226 123 188 q 129 149 144 116 q 160 83 187 62 q 214 40 256 40 q 304 40 336 59 q 369 78 388 109 q 408 140 416 180 q 424 221 424 263 z m 426 74 l 424 78 q 395 33 352 9 q 308 -15 255 -15 q 201 -15 162 9 q 124 33 100 71 q 76 109 64 157 q 53 205 53 253 q 53 302 64 349 q 75 396 99 434 q 123 471 162 494 q 200 517 255 517 q 304 517 351 494 q 398 470 424 426 l 426 428 l 426 722 l 485 722 l 485 0 l 426 0 z"},"1":{"x_min":0,"x_max":556,"ha":556,"o":"m 115 573 l 271 692 l 332 692 l 332 0 l 268 0 l 268 622 l 115 498 z"},"5":{"x_min":0,"x_max":557,"ha":557,"o":"m 84 692 l 473 692 l 473 632 l 150 632 l 150 385 l 152 383 q 181 417 218 436 q 254 456 301 456 q 349 456 388 438 q 426 419 452 387 q 479 355 494 313 q 508 271 508 225 q 508 175 493 132 q 478 88 450 56 q 421 23 380 4 q 340 -15 290 -15 q 247 -15 208 -4 q 169 6 138 28 q 108 51 90 86 q 71 121 70 170 l 139 170 q 140 139 152 116 q 164 92 184 76 q 203 61 228 53 q 254 45 283 45 q 323 45 352 60 q 381 74 400 99 q 420 124 430 157 q 439 190 439 228 q 439 303 402 350 q 364 396 287 396 q 237 396 199 368 q 161 340 150 291 l 84 291 z"}}}
